<svg xmlns="http://www.w3.org/2000/svg" width="20.582" height="24" viewBox="0 0 20.582 24"><defs><style>.a{fill:#c0392b;}.b{fill:#262626;}.c{fill:#fff;}</style></defs><g transform="translate(-72.917)"><path class="a" d="M160.178,0h-9.44l-5.667,5.836V22.341a1.63,1.63,0,0,0,1.6,1.659h13.511a1.63,1.63,0,0,0,1.6-1.659V1.659A1.63,1.63,0,0,0,160.178,0Zm1.046,22.341a1.068,1.068,0,0,1-1.046,1.087H146.667a1.068,1.068,0,0,1-1.045-1.087V5.836h3.751a1.39,1.39,0,0,0,1.366-1.406V.572h9.44a1.068,1.068,0,0,1,1.046,1.087Z" transform="translate(-70.214)"/><g transform="translate(72.917 12.162)"><path class="b" d="M74.283,587.307h1.749V585l-1.907,2.376h0A.191.191,0,0,1,74.283,587.307Z" transform="translate(-74.093 -585)"/><path class="b" d="M880.678,587.307h-1.749V585l1.907,2.376h0A.191.191,0,0,0,880.678,587.307Z" transform="translate(-860.287 -585)"/><path class="a" d="M91.89,675.958a.37.37,0,0,1-.317.252H74.843a.37.37,0,0,1-.317-.252l-1.595-4.873c-.045-.138.023-.252.152-.252h20.25c.129,0,.2.113.152.252Z" transform="translate(-72.917 -668.526)"/></g><g transform="translate(78.457 16.366)"><path class="c" d="M335.251,803.052a.4.4,0,0,1,.12-.312.5.5,0,0,1,.348-.11.469.469,0,0,1,.334.11.409.409,0,0,1,.116.312.4.4,0,0,1-.12.309.468.468,0,0,1-.331.111.5.5,0,0,1-.343-.11A.39.39,0,0,1,335.251,803.052Z" transform="translate(-335.251 -800.204)"/><path class="c" d="M391.853,713.418a1.076,1.076,0,0,1-.318.832,1.281,1.281,0,0,1-.9.293h-.244v1.066h-.868V712.4h1.112a1.359,1.359,0,0,1,.914.266A.949.949,0,0,1,391.853,713.418Zm-1.463.417h.158a.432.432,0,0,0,.311-.11.4.4,0,0,0,.115-.3q0-.325-.36-.325h-.224Z" transform="translate(-388.063 -712.396)"/><path class="c" d="M498.012,713.934a1.659,1.659,0,0,1-.443,1.239,1.7,1.7,0,0,1-1.245.435h-1.039V712.4H496.4a1.677,1.677,0,0,1,1.194.4A1.493,1.493,0,0,1,498.012,713.934Zm-.9.031a1.021,1.021,0,0,0-.175-.655.646.646,0,0,0-.531-.213h-.253v1.8h.193a.7.7,0,0,0,.58-.23A1.109,1.109,0,0,0,497.111,713.965Z" transform="translate(-490.983 -712.396)"/><path class="c" d="M618.987,715.608h-.855V712.4h1.9v.7h-1.044v.613h.962v.7h-.962Z" transform="translate(-610.527 -712.396)"/></g><g transform="translate(77.348 8)"><g transform="translate(0.022)"><path class="a" d="M306.549,355.224c0,.222-.242.4-.538.4H295.39c-.3,0-.538-.181-.538-.4s.242-.4.538-.4h10.622C306.307,354.821,306.549,355,306.549,355.224Z" transform="translate(-294.852 -354.821)"/></g><g transform="translate(0 2.419)"><path class="a" d="M305.714,445.224c0,.222-.242.4-.538.4H294.555c-.3,0-.538-.181-.538-.4s.242-.4.538-.4h10.622C305.472,444.821,305.714,445,305.714,445.224Z" transform="translate(-294.017 -444.821)"/></g><g transform="translate(0.022 4.844)"><path class="a" d="M306.549,535.419c0,.222-.242.4-.538.4H295.39c-.3,0-.538-.181-.538-.4s.242-.4.538-.4h10.622C306.307,535.016,306.549,535.2,306.549,535.419Z" transform="translate(-294.852 -535.016)"/></g></g></g></svg>